<?xml version="1.0" standalone="no"?>
<!DOCTYPE svg PUBLIC "-//W3C//DTD SVG 20010904//EN"
 "http://www.w3.org/TR/2001/REC-SVG-20010904/DTD/svg10.dtd">
<svg version="1.0" xmlns="http://www.w3.org/2000/svg"
 width="1280.000000pt" height="1280.000000pt" viewBox="0 0 1280.000000 1280.000000"
 preserveAspectRatio="xMidYMid meet">
<metadata>
Created by potrace 1.15, written by Peter Selinger 2001-2017
</metadata>
<g transform="translate(0.000000,1280.000000) scale(0.100000,-0.100000)"
fill="#000000" stroke="none">
<path d="M6386 12788 c-3 -7 -7 -46 -11 -87 -7 -82 -44 -221 -75 -281 -31 -62
-77 -107 -125 -126 -47 -17 -61 -44 -23 -44 37 0 106 -48 132 -93 50 -85 51
-130 17 -592 -33 -441 -64 -855 -131 -1775 -22 -305 -54 -733 -70 -950 -16
-217 -34 -475 -41 -573 -7 -97 -16 -174 -20 -170 -5 6 -1237 2394 -1589 3081
-71 137 -85 160 -96 149 -3 -3 117 -387 266 -854 372 -1162 377 -1178 655
-2047 135 -423 249 -774 252 -779 4 -6 -3 -4 -13 4 -11 8 -696 628 -1522 1378
l-1502 1364 0 74 c0 58 -5 84 -25 122 -30 61 -100 123 -182 162 -60 28 -202
69 -285 82 l-36 5 5 -36 c13 -83 54 -225 82 -285 39 -82 101 -152 162 -182 38
-20 64 -25 122 -25 l74 0 1364 -1502 c750 -826 1372 -1512 1381 -1524 17 -21
15 -21 -75 8 -93 30 -270 87 -554 179 -87 28 -282 90 -433 139 -151 49 -346
111 -432 139 -343 111 -480 155 -903 291 -242 78 -509 164 -592 191 -84 27
-224 72 -310 100 -87 28 -207 66 -266 86 -102 32 -134 36 -111 13 5 -5 127
-70 270 -142 1014 -517 2974 -1524 2974 -1528 0 -3 -172 -18 -382 -33 -211
-15 -565 -41 -788 -57 -223 -17 -526 -39 -675 -50 -148 -11 -673 -49 -1165
-86 -978 -72 -975 -72 -1067 -18 -45 26 -93 95 -93 132 0 38 -27 24 -44 -23
-19 -48 -64 -94 -126 -125 -60 -31 -206 -69 -295 -77 -61 -6 -80 -12 -80 -23
0 -11 19 -17 80 -23 89 -8 235 -46 295 -77 62 -31 107 -77 126 -125 17 -47 44
-61 44 -23 0 37 48 106 93 132 85 50 130 51 592 17 441 -33 855 -64 1775 -131
305 -22 733 -54 950 -70 217 -16 477 -35 578 -41 100 -7 182 -15 182 -18 0 -4
-726 -377 -1612 -831 -886 -454 -1618 -830 -1627 -837 -37 -26 4 -22 106 10
59 20 179 58 266 86 86 28 226 73 310 100 83 27 350 113 592 191 425 137 557
179 900 290 88 28 284 91 435 140 151 49 346 111 433 139 284 92 461 149 554
179 90 29 92 29 75 8 -9 -12 -631 -698 -1381 -1524 l-1364 -1502 -74 0 c-58 0
-84 -5 -122 -25 -61 -30 -123 -100 -162 -182 -28 -60 -69 -202 -82 -285 l-5
-36 36 5 c83 13 225 54 285 82 82 39 152 101 182 162 20 38 25 64 25 122 l0
74 1502 1364 c826 750 1512 1372 1524 1381 23 18 30 42 -232 -770 -217 -674
-285 -885 -334 -1037 -28 -88 -94 -292 -146 -452 -214 -666 -287 -891 -369
-1147 -47 -147 -84 -271 -80 -274 11 -11 25 15 157 274 531 1041 1524 2974
1529 2974 3 0 11 -82 18 -182 6 -101 25 -361 41 -578 16 -217 48 -645 70 -950
67 -920 98 -1334 131 -1775 34 -462 33 -507 -17 -592 -26 -45 -95 -93 -132
-93 -38 0 -24 -27 23 -44 48 -19 94 -64 125 -126 31 -60 69 -206 77 -295 6
-61 12 -80 23 -80 11 0 17 19 23 80 8 89 46 235 77 295 31 62 77 107 125 126
47 17 61 44 23 44 -37 0 -106 48 -132 93 -50 85 -51 130 -17 592 33 441 64
855 131 1775 22 305 54 733 70 950 16 217 34 475 41 573 7 97 16 174 20 170 5
-6 1237 -2394 1589 -3081 71 -137 85 -160 96 -149 3 3 -117 387 -266 854 -372
1162 -377 1178 -655 2047 -135 423 -249 774 -252 779 -4 6 3 4 13 -4 11 -8
696 -628 1522 -1378 l1502 -1364 0 -74 c0 -58 5 -84 25 -122 30 -61 100 -123
182 -162 60 -28 202 -69 285 -82 l36 -5 -5 36 c-13 83 -54 225 -82 285 -39 82
-101 152 -162 182 -38 20 -64 25 -122 25 l-74 0 -1364 1502 c-750 826 -1370
1511 -1378 1522 -8 10 -10 17 -4 13 8 -5 634 -207 1268 -408 121 -39 231 -74
245 -79 14 -5 126 -41 250 -80 124 -39 236 -75 250 -80 14 -5 124 -40 245 -79
121 -38 489 -156 818 -261 330 -105 601 -189 605 -186 3 4 1 10 -4 15 -5 5
-731 382 -1614 836 -883 455 -1608 830 -1612 834 -4 4 162 19 370 34 207 15
559 41 782 57 223 17 527 39 675 50 149 11 673 49 1165 86 978 72 975 72 1067
18 45 -26 93 -95 93 -132 0 -38 27 -24 44 23 19 48 64 94 126 125 60 31 206
69 295 77 61 6 80 12 80 23 0 11 -19 17 -80 23 -89 8 -235 46 -295 77 -62 31
-107 77 -126 125 -17 47 -44 61 -44 23 0 -37 -48 -106 -93 -132 -85 -50 -130
-51 -592 -17 -441 33 -855 64 -1775 131 -305 22 -733 54 -950 70 -217 16 -475
34 -573 41 -97 7 -174 16 -170 20 6 5 2394 1237 3081 1589 137 71 160 85 149
96 -3 3 -274 -81 -604 -186 -329 -105 -697 -223 -818 -261 -121 -39 -231 -74
-245 -79 -14 -5 -126 -41 -250 -80 -124 -39 -236 -75 -250 -80 -14 -5 -124
-40 -245 -79 -634 -201 -1260 -403 -1268 -408 -6 -4 -4 3 4 13 8 11 628 696
1378 1522 l1364 1502 74 0 c58 0 84 5 122 25 61 30 123 100 162 182 28 60 69
202 82 285 l5 36 -36 -5 c-83 -13 -225 -54 -285 -82 -82 -39 -152 -101 -182
-162 -20 -38 -25 -64 -25 -122 l0 -74 -1502 -1364 c-826 -750 -1511 -1370
-1522 -1378 -10 -8 -17 -10 -13 -4 3 5 117 356 252 779 278 869 283 885 655
2047 149 467 269 852 266 855 -4 3 -10 1 -15 -4 -5 -5 -382 -731 -836 -1614
-455 -883 -830 -1608 -834 -1612 -4 -4 -19 162 -34 370 -15 207 -41 559 -57
782 -17 223 -39 527 -50 675 -11 149 -49 673 -86 1165 -72 978 -72 975 -18
1067 26 45 95 93 132 93 38 0 24 27 -23 44 -48 19 -94 64 -125 126 -31 60 -69
206 -77 294 -5 49 -13 81 -20 84 -7 2 -15 -2 -17 -10z m1883 -1845 c-12 -27
-193 -464 -404 -973 -388 -938 -1029 -2484 -1048 -2530 -14 -34 -13 -40 -37
300 l-21 295 131 255 c73 140 248 480 390 755 142 275 406 788 587 1140 182
352 349 677 372 723 45 90 62 110 30 35z m-3651 -273 c60 -146 299 -724 532
-1285 896 -2162 840 -2024 839 -2074 -1 -95 3 -97 -219 104 l-205 185 -357
1118 c-197 614 -381 1189 -409 1277 -28 88 -109 341 -180 562 -115 360 -146
461 -119 398 4 -11 57 -139 118 -285z m620 -1075 c215 -418 483 -940 596
-1159 215 -417 215 -417 198 -509 -7 -36 -32 14 -499 985 -270 563 -539 1122
-598 1243 -58 121 -102 216 -97 210 5 -5 185 -352 400 -770z m239 -625 l549
-1145 -4 -77 c-2 -43 -8 -78 -13 -78 -5 0 -9 4 -9 9 0 5 -60 143 -134 308 -73
164 -256 573 -406 908 -150 336 -353 790 -452 1010 -299 666 -292 652 469
-935z m-509 965 c145 -326 318 -713 861 -1926 l182 -406 -9 -94 c-7 -80 -10
-90 -19 -69 -6 14 -147 354 -313 755 -504 1216 -756 1823 -815 1965 -31 74
-59 142 -62 150 -15 49 31 -52 175 -375z m3093 348 c-12 -20 -14 -14 -5 12 4
9 9 14 11 11 3 -2 0 -13 -6 -23z m-150 -309 c-66 -170 -214 -558 -330 -861
-116 -304 -305 -799 -420 -1100 -115 -302 -221 -578 -235 -615 -15 -40 -21
-70 -15 -73 12 -8 -3 -43 249 615 117 305 306 803 422 1105 311 814 350 916
409 1072 29 78 55 140 57 138 2 -1 -54 -164 -124 -361 -69 -198 -143 -408
-164 -469 -21 -60 -174 -497 -340 -970 -166 -473 -313 -893 -327 -933 -24 -71
-28 -76 -146 -183 -133 -120 -135 -120 -136 -28 -1 38 41 147 245 640 428
1032 869 2100 919 2222 91 224 54 109 -64 -199z m85 5 c-52 -162 -133 -413
-179 -559 -47 -146 -196 -614 -332 -1040 l-247 -775 -62 -56 c-33 -32 -62 -56
-63 -55 -3 3 63 190 639 1831 71 204 175 501 231 662 56 161 103 291 105 289
2 -2 -40 -136 -92 -297z m2959 -1680 c-17 -7 -237 -98 -725 -299 -63 -26 -443
-183 -845 -350 -401 -166 -793 -329 -870 -360 -77 -32 -369 -153 -649 -269
-420 -174 -517 -211 -555 -210 -96 1 -98 -3 104 219 l185 205 883 282 c485
155 905 290 932 298 28 9 104 34 170 55 171 55 550 176 685 218 63 21 241 78
395 128 251 83 349 110 290 83z m-9029 -18 c33 -10 193 -62 357 -115 424 -137
905 -292 1632 -526 242 -78 509 -164 593 -191 83 -27 223 -72 310 -100 86 -27
212 -69 279 -92 l122 -42 176 -195 c190 -211 189 -208 94 -209 -38 -1 -135 36
-555 210 -280 116 -572 237 -649 269 -77 31 -468 194 -870 360 -401 167 -782
324 -845 350 -401 165 -705 292 -709 296 -8 7 5 4 65 -15z m8384 -280 c-8 -5
-177 -81 -375 -169 -326 -145 -714 -318 -1926 -861 l-405 -181 -93 7 c-50 3
-88 9 -84 13 4 4 80 36 168 72 142 58 774 320 2025 838 223 93 468 195 545
228 128 55 183 75 145 53z m-7780 -11 c8 -5 11 -10 5 -10 -5 0 -17 5 -25 10
-8 5 -10 10 -5 10 6 0 17 -5 25 -10z m136 -56 c214 -90 2336 -969 2539 -1052
88 -36 164 -68 168 -72 4 -4 -32 -10 -81 -13 l-89 -7 -584 261 c-321 143 -912
407 -1314 586 -401 179 -737 329 -745 334 -33 19 3 7 106 -37z m7566 -6 c-57
-27 -516 -248 -1020 -490 -505 -242 -1023 -491 -1152 -552 l-235 -112 -77 4
c-43 2 -78 7 -78 10 0 4 44 26 98 49 53 23 297 132 542 241 245 110 697 312
1005 450 308 137 659 295 780 350 231 105 314 136 137 50z m135 36 c-3 -4
-529 -276 -1169 -605 -1219 -629 -1176 -608 -1271 -591 -36 7 12 31 950 482
543 261 1101 529 1238 596 253 124 263 129 252 118z m-7696 -70 c160 -72 967
-433 1799 -804 360 -160 659 -295 664 -300 4 -5 -28 -10 -73 -12 l-81 -3 -503
241 c-276 132 -761 365 -1077 516 -724 347 -866 416 -859 417 3 1 61 -24 130
-55z m474 -266 c325 -157 858 -412 1184 -569 l595 -284 -70 -9 -69 -8 -956
490 c-525 269 -1027 526 -1115 571 -148 74 -214 112 -174 98 8 -3 281 -133
605 -289z m1993 -1614 c133 -10 239 -21 235 -24 -5 -4 -327 -139 -718 -300
-390 -161 -777 -321 -860 -355 -82 -35 -478 -199 -880 -365 -401 -166 -793
-329 -870 -360 -77 -32 -162 -67 -190 -79 -27 -11 -43 -16 -35 -10 8 5 677
349 1485 764 l1470 755 60 -5 c33 -2 169 -12 303 -21z m3783 -430 c486 -251
1151 -593 1477 -761 325 -168 592 -307 592 -309 0 -2 -21 6 -47 17 -27 12
-111 47 -188 79 -77 31 -468 194 -870 360 -401 166 -797 330 -880 365 -82 34
-469 194 -860 355 -390 161 -714 296 -718 300 -4 4 108 15 250 24 142 10 263
19 268 21 6 2 28 4 51 4 34 1 169 -65 925 -455z m-3368 398 c14 -6 -1 -28 -88
-124 -83 -92 -113 -119 -147 -131 -44 -15 -291 -102 -1882 -663 -489 -173
-891 -312 -893 -311 -1 2 102 43 230 91 127 49 347 133 487 186 140 54 410
157 600 230 190 73 401 154 470 180 69 26 280 107 470 180 190 73 419 160 510
195 90 35 166 68 168 74 6 19 -11 13 -210 -63 -106 -41 -348 -133 -538 -206
-190 -73 -401 -154 -470 -180 -69 -26 -280 -107 -470 -180 -190 -72 -390 -149
-445 -170 -637 -245 -779 -299 -782 -296 -2 2 65 31 149 66 84 34 441 182 793
328 352 145 699 289 770 318 72 30 362 150 645 268 436 182 523 214 565 215
28 0 58 -4 68 -7z m2313 -203 c280 -116 583 -242 674 -279 91 -37 422 -175
735 -305 314 -130 670 -277 793 -327 122 -50 221 -92 219 -94 -2 -2 -68 21
-148 52 -194 75 -1009 387 -1134 434 -55 21 -253 96 -440 168 -980 375 -1238
472 -1243 467 -3 -3 -1 -10 4 -15 5 -5 194 -79 419 -165 226 -87 563 -215 750
-287 187 -72 385 -147 440 -168 55 -21 267 -102 470 -180 204 -78 490 -187
637 -242 148 -56 266 -103 265 -105 -2 -1 -208 69 -458 157 -493 174 -747 264
-1194 420 -319 112 -546 191 -943 331 l-264 92 -109 121 c-121 132 -121 134
-28 135 38 1 135 -36 555 -210z m-2598 -139 c-59 -67 -22 -51 -453 -190 -88
-28 -227 -73 -310 -100 -82 -27 -348 -112 -590 -190 -242 -78 -510 -164 -595
-192 -85 -27 -225 -72 -310 -99 -85 -28 -229 -75 -320 -104 -90 -30 -166 -53
-167 -51 -2 2 45 20 104 41 232 80 2376 834 2558 900 66 24 124 44 128 44 5 1
-16 -26 -45 -59z m2273 34 c24 -9 132 -46 239 -84 107 -38 326 -114 485 -170
160 -56 378 -132 485 -170 107 -37 364 -127 570 -200 206 -72 499 -175 650
-227 151 -52 282 -100 290 -105 19 -12 27 -15 -185 55 -93 30 -271 88 -395
127 -124 40 -270 86 -325 104 -55 18 -473 151 -928 297 l-828 264 -55 63 c-30
34 -53 62 -51 62 3 0 24 -7 48 -16z m-1552 -185 c1 -38 -41 -147 -245 -640
-135 -327 -415 -1001 -621 -1499 -206 -498 -429 -1037 -496 -1198 -66 -160
-122 -290 -124 -288 -2 2 7 37 21 77 13 41 88 272 166 514 165 513 262 814
470 1460 83 259 192 596 241 750 50 154 110 341 135 415 l45 135 197 178 c213
193 210 192 211 96z m1055 -117 l191 -172 357 -1118 c197 -614 381 -1189 409
-1277 28 -88 109 -342 180 -564 72 -222 129 -405 127 -406 -2 -2 -53 119 -115
268 -62 150 -299 724 -528 1277 -229 553 -515 1243 -636 1534 -221 534 -231
564 -213 634 8 27 -16 46 228 -176z m-1444 -1088 c-226 -505 -492 -1102 -592
-1326 -100 -225 -183 -406 -185 -405 -2 2 18 53 43 113 46 110 254 611 804
1939 166 402 307 741 313 755 9 21 12 12 19 -66 l8 -90 -410 -920z m1377 691
c253 -613 857 -2069 949 -2289 46 -110 82 -201 80 -203 -1 -2 -31 61 -66 139
-69 158 -476 1068 -886 1984 l-264 590 7 93 c3 50 9 88 13 84 3 -4 79 -183
167 -398z m-1013 -120 c-34 -71 -268 -562 -521 -1090 -253 -528 -488 -1020
-523 -1093 -35 -73 -65 -131 -67 -129 -1 2 22 60 53 128 66 146 396 885 804
1799 160 360 295 660 298 665 4 6 9 -26 12 -70 l5 -80 -61 -130z m836 266 c0
-5 60 -143 134 -308 73 -164 256 -572 406 -908 150 -335 355 -794 456 -1019
101 -225 182 -411 180 -413 -1 -2 -23 41 -48 94 -25 54 -295 618 -600 1253
l-554 1155 4 78 c2 42 8 77 13 77 5 0 9 -4 9 -9z m-1242 -1281 c-267 -520
-527 -1027 -577 -1128 -51 -101 -95 -181 -98 -179 -2 3 12 38 33 78 36 72 223
462 820 1708 l289 605 9 -70 8 -69 -484 -945z m1780 -100 c236 -492 476 -989
532 -1105 56 -115 97 -205 92 -200 -5 6 -185 352 -400 770 -215 418 -483 940
-596 1159 -117 228 -206 411 -206 426 0 15 3 49 7 76 l6 48 67 -139 c37 -77
261 -543 498 -1035z m-4798 1040 c-8 -5 -19 -10 -25 -10 -5 0 -3 5 5 10 8 5
20 10 25 10 6 0 3 -5 -5 -10z m7785 -20 c3 -6 -1 -7 -9 -4 -18 7 -21 14 -7 14
6 0 13 -4 16 -10z m-5514 -2247 c-12 -20 -14 -14 -5 12 4 9 9 14 11 11 3 -2 0
-13 -6 -23z"/>
</g>
</svg>
